<svg xmlns="http://www.w3.org/2000/svg" xmlns:xlink="http://www.w3.org/1999/xlink" width="187.002" height="92.793" viewBox="0 0 187.002 92.793"><defs><style>.a{fill:#1efa67;}.b{clip-path:url(#a);}.c{clip-path:url(#b);}</style><clipPath id="a"><path class="a" d="M38.227,7h27.9V30.8h-27.9Zm0,0" transform="translate(-38.227 -7)"/></clipPath><clipPath id="b"><path class="a" d="M60,3.855H73.393V17.038H60Zm0,0" transform="translate(-60 -3.855)"/></clipPath></defs><g transform="translate(-140 -28.604)"><g transform="translate(246.283 119.011)"><g transform="translate(0 0)"><path class="a"/></g></g><path class="a" d="M69.978,6.785C65.629,10.6,60.883,14.8,56.535,18.613a.012.012,0,0,0,.012.012c.037.062.074.124.112.2a1.19,1.19,0,0,1,.112.211,6.519,6.519,0,0,1,.559,2.249c4.721-4.137,9.84-8.66,14.549-12.8A6.4,6.4,0,0,1,69.978,6.785Zm0,0" transform="translate(235.891 31.137)"/><path class="a" d="M50.157,6.793a6.014,6.014,0,0,1-.832,2.646c3.951,3.454,8.312,7.318,12.263,10.784a5.807,5.807,0,0,1,1.143-2.361C58.68,14.3,54.219,10.346,50.157,6.793Zm0,0" transform="translate(220.167 31.154)"/><g class="b" transform="translate(234.194 38.605)"><path class="a" d="M48,19.886a6.609,6.609,0,0,0-3.653-1.292c-3.442-.174-5.926,2.907-6.088,6.063-.186,3.417,2.92,5.889,6.088,6.051,3.292.174,5.715-2.659,6.05-5.678a1.885,1.885,0,0,0,0-.746,6.516,6.516,0,0,0-.746-2.485c4.622-4.05,9.455-8.3,14.077-12.35a5.843,5.843,0,0,1-1.093-2.41C57.832,11.251,52.812,15.661,48,19.886ZM40.81,24.657c-.248-4.547,6.833-4.522,7.082,0A3.544,3.544,0,0,1,40.81,24.657Zm0,0" transform="translate(-38.164 -6.915)"/></g><path class="a" d="M57.956,10.13c-.012-.05-.012-.1-.025-.149a.959.959,0,0,0-.025-.186A6.09,6.09,0,0,0,45.83,10.875a5.275,5.275,0,0,0,.1,1.18,5.757,5.757,0,0,0,1.093,2.41,6.437,6.437,0,0,0,5.193,2.46,5.937,5.937,0,0,0,4.932-3.007,6.014,6.014,0,0,0,.832-2.646A5.818,5.818,0,0,0,57.956,10.13Zm-5.74,4.262a3.526,3.526,0,1,1,3.206-4.063A3.579,3.579,0,0,1,52.216,14.391Zm0,0" transform="translate(212.542 26.873)"/><path class="a" d="M64.446,12.629c-.037-.074-.087-.137-.124-.2l-.012-.012a6.2,6.2,0,0,0-8.225-2.125,5.34,5.34,0,0,0-1.7,1.391,5.807,5.807,0,0,0-1.143,2.361,6.367,6.367,0,0,0,.646,4.634,6.2,6.2,0,0,0,7.964,2.273,5.852,5.852,0,0,0,3.268-5.864,6.754,6.754,0,0,0-.572-2.249C64.521,12.778,64.483,12.7,64.446,12.629Zm-3.653,6.013a3.529,3.529,0,1,1,1.441-4.733A3.563,3.563,0,0,1,60.793,18.642Zm0,0" transform="translate(228.316 37.133)"/><g class="c" transform="translate(303.447 28.604)"><path class="a" d="M72.533,9.636a6.12,6.12,0,0,0-5.877-5.765.587.587,0,0,0-.211-.012.521.521,0,0,0-.2.012A6.166,6.166,0,0,0,60.37,9.636a5.425,5.425,0,0,0,1.093,3.74,6.4,6.4,0,0,0,1.9,1.7,6.04,6.04,0,0,0,9.169-5.442Zm-5.616,3.777c-2.274.447-4.063-1.7-4-3.777a3.548,3.548,0,0,1,7.069,0A3.6,3.6,0,0,1,66.918,13.413Zm0,0" transform="translate(-59.239 -3.859)"/></g><path class="a" d="M10.943-12.918H.879V17.608c0,2.236,0,3.74.112,5.305.224,3.976,2.845,5.815,7.492,5.815,2.236,0,4.025-.112,5.864-.286V21.634c-2.622.112-3.131-.286-3.292-1.454a17.535,17.535,0,0,1-.112-2.746Zm0,0" transform="translate(139.121 76.823)"/><path class="a" d="M6.1-13.2C2.969-13.2.895-11.3.895-8.279S2.969-3.359,6.1-3.359s5.193-1.9,5.193-4.92S9.231-13.2,6.1-13.2Zm5.032,41.981V-1.073H1.068V28.782Zm0,0" transform="translate(152.85 76.21)"/><path class="a" d="M30.966-1.52c-.783-5.206-4.411-8.113-10.561-8.113A12.42,12.42,0,0,0,13.7-7.893L11.013-4.2V-8.85H.949V21.005H11.013V6.916c0-6.759,2.174-9.728,5.255-9.728,3.019,0,4.585,1.677,4.808,4.535.112,1.5.112,3.131.112,4.075V21.005H31.252V4.121A39.1,39.1,0,0,0,30.966-1.52Zm0,0" transform="translate(165.714 83.987)"/><path class="a" d="M13.137,17.1l7.989,11.07H33.488L20.679,12.017l12.635-13.7H21.524L11.013,10.837V-12.918H.949V28.169H11.013V19.447Zm0,0" transform="translate(198.363 76.823)"/><path class="a" d="M33.458-12.918H23.394v15.1L21.444-1.015a15.519,15.519,0,0,0-6.883-1.454C6.907-2.469.422,3.3.422,13.918c0,8.834,5.032,15.033,13.132,15.033,3.019,0,5.926-.621,7.6-1.839l2.236-3.3v4.361H33.458ZM17.021,22.131c-3.516,0-6.312-3.131-6.312-8.722,0-6.088,2.684-9.057,6.6-9.057,3.019,0,6.088,2.013,6.088,8v1.28C23.394,19.894,20.711,22.131,17.021,22.131Zm0,0" transform="translate(229.191 76.823)"/><path class="a" d="M31.333,5.686c0-7.715-5.032-15.319-14.984-15.319S.422-2.526.422,6.2c0,10.511,6.821,15.592,15.369,15.592,7.666,0,13.257-3.8,14.984-10.561h-9.89c-.4,2.286-2.125,3.74-4.982,3.74s-5.032-1.392-5.529-6.374h20.8A26.762,26.762,0,0,0,31.333,5.686Zm-15.48-8.5c2.684,0,4.411,1.739,4.97,5.255H10.709C11.38-1.246,13.219-2.812,15.853-2.812Zm0,0" transform="translate(263.237 83.987)"/><path class="a" d="M34.44-9.387H23.42L17.332,12.48,11.182-9.387H0L11.791,20.469H22.637Zm0,0" transform="translate(292.562 84.524)"/><g transform="translate(186.106 111.172)"><g transform="translate(0 0)"><path class="a" d="M3.623-2.44c-.348-.025-.534-.025-.944-.025H.355v7.84H2.642a6.827,6.827,0,0,0,1.006-.05A3.642,3.642,0,0,0,6.729,1.387,3.482,3.482,0,0,0,3.623-2.44Zm-.05,7.181a7.494,7.494,0,0,1-.957.037H1.051V-1.881h1.59a6.344,6.344,0,0,1,.919.037c1.292.186,2.4,1.218,2.4,3.23C5.959,3.424,4.878,4.542,3.573,4.741Zm0,0" transform="translate(-0.355 2.465)"/></g></g><g transform="translate(194.381 112.836)"><g transform="translate(0 0)"><path class="a" d="M5.46,1.065C5.46-.6,4.578-1.941,2.9-1.941a2.867,2.867,0,0,0-2.8,3.168c0,2.125,1.18,3.168,2.671,3.168a2.5,2.5,0,0,0,2.6-2.062H4.64a1.807,1.807,0,0,1-1.814,1.5c-.982,0-1.876-.621-1.951-2.4h4.56A2.546,2.546,0,0,0,5.46,1.065ZM2.876-1.37c1.006,0,1.777.708,1.864,2.249H.876C.975-.624,1.882-1.37,2.876-1.37Zm0,0" transform="translate(-0.105 1.941)"/></g></g><g transform="translate(201.37 112.998)"><g transform="translate(0 0)"><path class="a" d="M5.523-1.891H4.778L2.8,3.6.8-1.891H.02L2.33,4.123h.882Zm0,0" transform="translate(-0.02 1.891)"/></g></g><g transform="translate(208.429 112.836)"><g transform="translate(0 0)"><path class="a" d="M5.46,1.065C5.46-.6,4.578-1.941,2.9-1.941a2.867,2.867,0,0,0-2.8,3.168c0,2.125,1.18,3.168,2.671,3.168a2.5,2.5,0,0,0,2.6-2.062H4.64a1.807,1.807,0,0,1-1.814,1.5c-.982,0-1.876-.621-1.951-2.4h4.56A2.546,2.546,0,0,0,5.46,1.065ZM2.876-1.37c1.006,0,1.777.708,1.864,2.249H.876C.975-.624,1.882-1.37,2.876-1.37Zm0,0" transform="translate(-0.105 1.941)"/></g></g><g transform="translate(216.139 110.649)"><g transform="translate(0 0)"><path class="a" d="M.954-2.629H.246v6.8c0,.36,0,.6.012.808a.743.743,0,0,0,.857.808,2.884,2.884,0,0,0,.559-.037V5.223c-.522.05-.683-.05-.708-.435C.954,4.6.954,4.4.954,4.142Zm0,0" transform="translate(-0.246 2.629)"/></g></g><g transform="translate(219.318 112.836)"><g transform="translate(0 0)"><path class="a" d="M3.038-1.941A2.875,2.875,0,0,0,.105,1.227,2.875,2.875,0,0,0,3.038,4.395a2.872,2.872,0,0,0,2.92-3.168A2.872,2.872,0,0,0,3.038-1.941Zm0,5.777C1.783,3.836.888,2.867.888,1.227s.895-2.6,2.149-2.6,2.149.969,2.149,2.6S4.28,3.836,3.038,3.836Zm0,0" transform="translate(-0.105 1.941)"/></g></g><g transform="translate(227.475 112.836)"><g transform="translate(0 0)"><path class="a" d="M3.07-1.941a2.35,2.35,0,0,0-1.7.621l-.4.658V-1.817H.262V6.457H.97V3.215l.373.646a2.3,2.3,0,0,0,1.541.534c1.528,0,2.87-1.056,2.87-3.243C5.753-.637,4.747-1.941,3.07-1.941ZM2.883,3.836C2,3.836.97,3.252.97,1.537V1.09c0-1.826.932-2.46,2-2.46C4.287-1.37,4.983-.2,4.983,1.239,4.983,2.867,4.088,3.836,2.883,3.836Zm0,0" transform="translate(-0.262 1.941)"/></g></g><g transform="translate(234.775 112.836)"><g transform="translate(0 0)"><path class="a" d="M5.46,1.065C5.46-.6,4.578-1.941,2.9-1.941a2.867,2.867,0,0,0-2.8,3.168c0,2.125,1.18,3.168,2.671,3.168a2.5,2.5,0,0,0,2.6-2.062H4.64a1.807,1.807,0,0,1-1.814,1.5c-.982,0-1.876-.621-1.951-2.4h4.56A2.546,2.546,0,0,0,5.46,1.065ZM2.876-1.37c1.006,0,1.777.708,1.864,2.249H.876C.975-.624,1.882-1.37,2.876-1.37Zm0,0" transform="translate(-0.105 1.941)"/></g></g><g transform="translate(242.535 112.861)"><g transform="translate(0 0)"><path class="a" d="M2.436-1.934a1.45,1.45,0,0,0-1.044.46L.97-.7V-1.8H.262V4.216H.97V.837c0-1.6.77-2.249,1.814-2.174v-.547A1.024,1.024,0,0,0,2.436-1.934Zm0,0" transform="translate(-0.262 1.934)"/></g></g><g transform="translate(250.298 111.01)"><g transform="translate(0 0)"><path class="a" d="M3.829-2.516C1.679-2.516.176-.813.176,1.6c0,2.385,1.342,4.05,3.491,4.05A2.993,2.993,0,0,0,6.9,3l.012-.124H6.2L6.177,3A2.345,2.345,0,0,1,3.7,5.076C2.114,5.076.959,3.746.959,1.56c0-2.137,1.218-3.5,2.833-3.5A2.316,2.316,0,0,1,6.214.081l.025.124h.7L6.922.081A2.859,2.859,0,0,0,3.829-2.516Zm0,0" transform="translate(-0.176 2.516)"/></g></g><g transform="translate(259.064 112.836)"><g transform="translate(0 0)"><path class="a" d="M3.038-1.941A2.875,2.875,0,0,0,.105,1.227,2.875,2.875,0,0,0,3.038,4.395a2.872,2.872,0,0,0,2.92-3.168A2.872,2.872,0,0,0,3.038-1.941Zm0,5.777C1.783,3.836.888,2.867.888,1.227s.895-2.6,2.149-2.6,2.149.969,2.149,2.6S4.28,3.836,3.038,3.836Zm0,0" transform="translate(-0.105 1.941)"/></g></g><g transform="translate(267.221 112.836)"><g transform="translate(0 0)"><path class="a" d="M8.114-.326A1.716,1.716,0,0,0,6.3-1.941a1.845,1.845,0,0,0-1.392.522l-.46.77A1.681,1.681,0,0,0,2.7-1.941a1.845,1.845,0,0,0-1.391.522L.97-.749V-1.78H.262V4.233H.97V1.09c0-1.789.658-2.46,1.5-2.46A1.266,1.266,0,0,1,3.815-.1,8.951,8.951,0,0,1,3.865,1v3.23h.708V1.09c0-1.789.658-2.46,1.5-2.46A1.266,1.266,0,0,1,7.418-.1,8.951,8.951,0,0,1,7.468,1v3.23h.708V.693A5.608,5.608,0,0,0,8.114-.326Zm0,0" transform="translate(-0.262 1.941)"/></g></g><g transform="translate(277.882 112.836)"><g transform="translate(0 0)"><path class="a" d="M8.114-.326A1.716,1.716,0,0,0,6.3-1.941a1.845,1.845,0,0,0-1.392.522l-.46.77A1.681,1.681,0,0,0,2.7-1.941a1.845,1.845,0,0,0-1.391.522L.97-.749V-1.78H.262V4.233H.97V1.09c0-1.789.658-2.46,1.5-2.46A1.266,1.266,0,0,1,3.815-.1,8.951,8.951,0,0,1,3.865,1v3.23h.708V1.09c0-1.789.658-2.46,1.5-2.46A1.266,1.266,0,0,1,7.418-.1,8.951,8.951,0,0,1,7.468,1v3.23h.708V.693A5.608,5.608,0,0,0,8.114-.326Zm0,0" transform="translate(-0.262 1.941)"/></g></g><g transform="translate(288.443 112.998)"><g transform="translate(0 0)"><path class="a" d="M5.088-1.891H4.38V1.1c0,1.876-.845,2.609-1.851,2.609A1.429,1.429,0,0,1,.988,2.358a7.469,7.469,0,0,1-.05-.895V-1.891H.23V1.625A7.276,7.276,0,0,0,.28,2.632a1.928,1.928,0,0,0,2.1,1.652,2.264,2.264,0,0,0,1.677-.646l.323-.671V4.123h.708Zm0,0" transform="translate(-0.23 1.891)"/></g></g><g transform="translate(296.124 112.836)"><g transform="translate(0 0)"><path class="a" d="M5.095-.14a1.915,1.915,0,0,0-2.125-1.8,2.256,2.256,0,0,0-1.69.671L.97-.624V-1.78H.262V4.233H.97V1.239c0-1.876.87-2.6,1.876-2.6A1.394,1.394,0,0,1,4.387.034c.025.311.025.571.025.919v3.28H5.12V.866C5.12.382,5.12.158,5.095-.14Zm0,0" transform="translate(-0.262 1.941)"/></g></g><g transform="translate(303.603 111.221)"><g transform="translate(0 0)"><path class="a" d="M.695-2.449a.475.475,0,0,0-.472.485.472.472,0,0,0,.472.472.475.475,0,0,0,.485-.472A.477.477,0,0,0,.695-2.449Zm.36,7.79V-.673H.347V5.341Zm0,0" transform="translate(-0.223 2.449)"/></g></g><g transform="translate(306.68 111.718)"><g transform="translate(0 0)"><path class="a" d="M1.561-.417H2.7V-.964H1.561V-2.293H.852V-.964H.082v.547h.77V3.36c0,.348,0,.572.012.77a.937.937,0,0,0,1.081.957,4.956,4.956,0,0,0,.733-.05V4.516c-.808.1-1.056-.05-1.106-.634-.012-.149-.012-.286-.012-.534Zm0,0" transform="translate(-0.082 2.293)"/></g></g><g transform="translate(310.846 112.998)"><g transform="translate(0 0)"><path class="a" d="M5.474-1.891H4.7L2.765,3.6.827-1.891H.02L2.4,4.346l-.124.323c-.385.969-.8,1.255-1.342,1.255A2.072,2.072,0,0,1,.554,5.9v.572a1.674,1.674,0,0,0,.46.037c.857,0,1.429-.472,2.05-2.062Zm0,0" transform="translate(-0.02 1.891)"/></g></g></g></svg>